HIERARCHY
ROOT base
{
	OFFSET 0.000000 0.000000 0.000000
	CHANNELS 6 Xposition Yposition Zposition Xrotation Yrotation Zrotation
	JOINT torso
	{
		OFFSET 0.000000 0.000000 0.490888
		CHANNELS 3 Xrotation Yrotation Zrotation
		JOINT head
		{
			OFFSET 0.000000 0.000000 0.372984
			CHANNELS 3 Xrotation Yrotation Zrotation
			End Site
			{
				OFFSET 0.000000 -0.000000 0.184769
			}
		}
		JOINT arm.upper.left
		{
			OFFSET 0.163516 0.000000 0.306886
			CHANNELS 6 Xposition Yposition Zposition Xrotation Yrotation Zrotation
			JOINT arm.lower.left
			{
				OFFSET 0.011593 0.000000 -0.206361
				CHANNELS 3 Xrotation Yrotation Zrotation
				End Site
				{
					OFFSET 0.012971 0.000000 -0.197808
				}
			}
		}
		JOINT arm.upper.right
		{
			OFFSET -0.163516 0.000000 0.306886
			CHANNELS 6 Xposition Yposition Zposition Xrotation Yrotation Zrotation
			JOINT arm.lower.right
			{
				OFFSET -0.011593 0.000000 -0.206361
				CHANNELS 3 Xrotation Yrotation Zrotation
				End Site
				{
					OFFSET -0.012971 0.000000 -0.197808
				}
			}
		}
	}
	JOINT leg.upper.left
	{
		OFFSET 0.068166 0.000000 0.503791
		CHANNELS 6 Xposition Yposition Zposition Xrotation Yrotation Zrotation
		JOINT leg.lower.left
		{
			OFFSET 0.008766 0.000000 -0.256595
			CHANNELS 3 Xrotation Yrotation Zrotation
			End Site
			{
				OFFSET -0.001038 0.000000 -0.245963
			}
		}
	}
	JOINT leg.upper.right
	{
		OFFSET -0.068166 0.000000 0.503791
		CHANNELS 6 Xposition Yposition Zposition Xrotation Yrotation Zrotation
		JOINT leg.lower.right
		{
			OFFSET -0.008766 0.000000 -0.256595
			CHANNELS 3 Xrotation Yrotation Zrotation
			End Site
			{
				OFFSET 0.001038 0.000000 -0.245963
			}
		}
	}
}
MOTION
Frames: 20
Frame Time: 0.041
0.000000 0.000000 0.000000 -0.000000 0.000000 -0.000000 -0.000000 0.000000 -0.000000 0.000000 0.000000 0.000000 0.163516 0.000000 0.306886 -0.000000 0.000000 -0.000000 -0.000000 0.000001 -0.000000 -0.164687 0.000000 0.306409 -10.300721 -0.991983 5.766354 -80.953799 3.413452 16.700902 0.068166 0.000000 0.503791 -22.663900 0.560821 -1.058049 13.468771 -0.481814 -0.286891 -0.068166 0.000000 0.503791 17.111598 0.576192 -0.777412 0.348136 -1.273846 -0.070034 
0.000000 0.000000 0.000000 -0.000000 0.000000 -0.000000 -0.000000 0.000000 -0.000000 0.000000 0.000000 0.000000 0.163516 0.000000 0.306886 -0.000000 0.000000 -0.000000 -0.000000 0.000001 -0.000000 -0.164699 0.000000 0.306288 -10.306551 -0.842294 5.660565 -80.865506 3.154560 16.687855 0.068166 0.000000 0.503791 -21.829252 0.492813 -1.017839 12.984102 -0.401316 -0.280498 -0.068166 0.000000 0.503791 15.516404 0.568843 -0.700605 4.657673 -1.219557 0.050796 
0.000000 0.000000 0.000000 -0.000000 0.000000 -0.000000 -0.000000 0.000000 -0.000000 0.000000 0.000000 0.000000 0.163516 0.000000 0.306886 -0.000000 0.000000 -0.000000 -0.000000 0.000001 -0.000000 -0.164730 0.000000 0.305972 -10.320494 -0.450691 5.383930 -80.619387 2.480666 16.655237 0.068166 0.000000 0.503791 -19.110108 0.294254 -0.887230 11.536948 -0.166276 -0.257564 -0.068166 0.000000 0.503791 10.682852 0.533367 -0.469478 16.031629 -1.016581 0.344634 
0.000000 0.000000 0.000000 -0.000000 0.000000 -0.000000 -0.000000 0.000000 -0.000000 0.000000 0.000000 0.000000 0.163516 0.000000 0.306886 -0.000000 0.000000 -0.000000 -0.000000 0.000001 -0.000000 -0.164760 0.000000 0.305655 -10.332544 -0.059026 5.107400 -80.331795 1.815838 16.624641 0.068166 0.000000 0.503791 -14.936913 0.043185 -0.686216 9.606005 0.134510 -0.218418 -0.068166 0.000000 0.503791 4.075939 0.453523 -0.159992 27.399116 -0.713066 0.581413 
0.000000 0.000000 0.000000 -0.000000 0.000000 -0.000000 -0.000000 0.000000 -0.000000 0.000000 0.000000 0.000000 0.163516 0.000000 0.306886 -0.000000 0.000000 -0.000000 -0.000000 0.000001 -0.000000 -0.164772 0.000000 0.305535 -10.336651 0.090720 5.001705 -80.138063 1.580035 16.612205 0.068166 0.000000 0.503791 -10.453681 -0.155819 -0.475727 7.901823 0.381063 -0.176758 -0.068166 0.000000 0.503791 -1.924365 0.350564 0.111466 31.701428 -0.494951 0.628541 
0.000000 0.000000 0.000000 -0.000000 0.000000 -0.000000 -0.000000 0.000000 -0.000000 0.000000 0.000000 0.000000 0.163516 0.000000 0.306886 -0.000000 0.000000 -0.000000 -0.000000 0.000001 -0.000000 -0.164771 -0.000000 0.305536 -10.383483 0.040597 5.072243 -80.027633 1.839409 16.556546 0.068166 0.000000 0.503791 -4.856716 -0.319463 -0.224220 6.188516 0.603153 -0.129652 -0.068166 0.000000 0.503791 -8.137198 0.214615 0.379625 30.442799 -0.326397 0.566274 
0.000000 0.000000 0.000000 -0.000000 0.000000 -0.000000 -0.000000 0.000000 -0.000000 0.000000 0.000000 0.000000 0.163516 0.000000 0.306886 -0.000000 0.000000 -0.000000 -0.000000 0.000001 -0.000000 -0.164766 0.000000 0.305540 -10.525030 -0.111628 5.272919 -79.956619 2.531238 16.415207 0.068166 0.000000 0.503791 2.698466 -0.466138 0.117536 4.104399 0.853921 -0.065277 -0.068166 0.000000 0.503791 -15.786357 0.008557 0.687137 26.729220 -0.111398 0.471923 
0.000000 0.000000 0.000000 -0.000000 0.000000 -0.000000 -0.000000 0.000000 -0.000000 0.000000 0.000000 0.000000 0.163516 0.000000 0.306886 -0.000000 0.000000 -0.000000 -0.000000 0.000001 -0.000000 -0.164761 0.000000 0.305545 -10.732691 -0.336689 5.535896 -79.931279 3.442623 16.265249 0.068166 0.000000 0.503791 10.251628 -0.549820 0.463648 2.117198 1.080619 0.003307 -0.068166 0.000000 0.503791 -23.066314 -0.224075 0.951909 21.501955 0.098370 0.379466 
0.000000 0.000000 0.000000 -0.000000 0.000000 -0.000000 -0.000000 0.000000 -0.000000 0.000000 0.000000 0.000000 0.163516 0.000000 0.306886 -0.000000 0.000000 -0.000000 -0.000000 0.000001 -0.000000 -0.164757 0.000000 0.305549 -10.945545 -0.568962 5.751357 -79.945506 4.218298 16.208956 0.068166 0.000000 0.503791 15.408072 -0.574072 0.699945 0.784687 1.226991 0.053101 -0.068166 0.000000 0.503791 -27.905102 -0.396506 1.110671 16.537360 0.231996 0.314861 
0.000000 0.000000 0.000000 -0.000000 0.000000 -0.000000 -0.000000 0.000000 -0.000000 0.000000 0.000000 0.000000 0.163516 0.000000 0.306886 -0.000000 0.000000 -0.000000 -0.000000 0.000001 -0.000000 -0.164755 0.000000 0.305551 -11.115003 -0.754095 5.847760 -79.984780 4.619676 16.298534 0.068166 0.000000 0.503791 17.111601 -0.576191 0.777411 0.348134 1.273846 0.070033 -0.068166 0.000000 0.503791 -29.480623 -0.455457 1.159158 13.133699 0.253088 0.277854 
0.000000 0.000000 0.000000 -0.000000 0.000000 -0.000000 -0.000000 0.000000 -0.000000 0.000000 0.000000 0.000000 0.163516 0.000000 0.306886 -0.000000 0.000000 -0.000000 -0.000000 0.000001 -0.000000 -0.164763 0.000000 0.305543 -11.268354 -0.928998 5.872052 -80.017743 4.672042 16.586332 0.068166 0.000000 0.503791 15.725474 -0.574578 0.714311 3.256465 1.235964 -0.012686 -0.068166 0.000000 0.503791 -28.196097 -0.407298 1.119748 11.009756 0.184102 0.252589 
0.000000 0.000000 0.000000 -0.000000 0.000000 -0.000000 -0.000000 0.000000 -0.000000 0.000000 0.000000 0.000000 0.163516 0.000000 0.306886 -0.000000 0.000000 -0.000000 -0.000000 0.000001 -0.000000 -0.164786 0.000000 0.305522 -11.435325 -1.132924 5.883896 -80.026383 4.461941 17.089120 0.068166 0.000000 0.503791 11.502998 -0.557107 0.520335 11.533501 1.094598 -0.235207 -0.068166 0.000000 0.503791 -24.224799 -0.264145 0.991236 9.575761 0.045208 0.228619 
0.000000 0.000000 0.000000 -0.000000 0.000000 -0.000000 -0.000000 0.000000 -0.000000 0.000000 0.000000 0.000000 0.163516 0.000000 0.306886 -0.000000 0.000000 -0.000000 -0.000000 0.000001 -0.000000 -0.164815 0.000000 0.305496 -11.583281 -1.322299 5.884746 -80.026984 4.099979 17.658643 0.068166 0.000000 0.503791 5.240091 -0.496797 0.231008 22.237194 0.837242 -0.482945 -0.068166 0.000000 0.503791 -18.177705 -0.064164 0.777344 8.656379 -0.146087 0.204557 
0.000000 0.000000 0.000000 -0.000000 0.000000 -0.000000 -0.000000 0.000000 -0.000000 0.000000 0.000000 0.000000 0.163516 0.000000 0.306886 -0.000000 0.000000 -0.000000 -0.000000 0.000001 -0.000000 -0.164837 0.000000 0.305475 -11.677825 -1.447188 5.880898 -80.047235 3.784379 18.080759 0.068166 0.000000 0.503791 -1.183989 -0.387950 -0.065339 30.523893 0.552401 -0.623940 -0.068166 0.000000 0.503791 -11.681158 0.124181 0.525518 7.831415 -0.346870 0.178170 
0.000000 0.000000 0.000000 -0.000000 0.000000 -0.000000 -0.000000 0.000000 -0.000000 0.000000 0.000000 0.000000 0.163516 0.000000 0.306886 -0.000000 0.000000 -0.000000 -0.000000 0.000001 -0.000000 -0.164845 0.000000 0.305467 -11.707882 -1.487688 5.878775 -80.106139 3.656774 18.231344 0.068166 0.000000 0.503791 -6.180004 -0.259899 -0.296883 33.436091 0.346206 -0.633011 -0.068166 0.000000 0.503791 -6.198333 0.260048 0.297560 6.742645 -0.520090 0.146561 
0.000000 0.000000 0.000000 -0.000000 0.000000 -0.000000 -0.000000 0.000000 -0.000000 0.000000 0.000000 0.000000 0.163516 0.000000 0.306886 -0.000000 0.000000 -0.000000 -0.000000 0.000001 -0.000000 -0.164831 0.000000 0.305551 -11.582833 -1.443517 5.869277 -80.238501 3.622741 18.100546 0.068166 0.000000 0.503791 -10.551145 -0.098312 -0.505190 31.663575 0.168892 -0.559871 -0.068166 0.000000 0.503791 -0.714079 0.373502 0.057628 5.256225 -0.697429 0.103733 
0.000000 0.000000 0.000000 -0.000000 0.000000 -0.000000 -0.000000 0.000000 -0.000000 0.000000 0.000000 0.000000 0.163516 0.000000 0.306886 -0.000000 0.000000 -0.000000 -0.000000 0.000001 -0.000000 -0.164791 0.000000 0.305787 -11.230569 -1.319208 5.841998 -80.460919 3.558287 17.718400 0.068166 0.000000 0.503791 -15.229777 0.122697 -0.726879 26.661217 -0.051761 -0.452335 -0.068166 0.000000 0.503791 5.787135 0.477550 -0.239215 3.485293 -0.907144 0.046729 
0.000000 0.000000 0.000000 -0.000000 0.000000 -0.000000 -0.000000 0.000000 -0.000000 0.000000 0.000000 0.000000 0.163516 0.000000 0.306886 -0.000000 0.000000 -0.000000 -0.000000 0.000001 -0.000000 -0.164740 0.000000 0.306089 -10.778194 -1.159845 5.805856 -80.709197 3.485028 17.224163 0.068166 0.000000 0.503791 -19.299116 0.349547 -0.912281 20.229603 -0.273825 -0.356228 -0.068166 0.000000 0.503791 11.842586 0.543630 -0.524640 1.818319 -1.102817 -0.012819 
0.000000 0.000000 0.000000 -0.000000 0.000000 -0.000000 -0.000000 0.000000 -0.000000 0.000000 0.000000 0.000000 0.163516 0.000000 0.306886 -0.000000 0.000000 -0.000000 -0.000000 0.000001 -0.000000 -0.164701 0.000000 0.306325 -10.425831 -1.035932 5.776839 -80.891146 3.431704 16.838131 0.068166 0.000000 0.503791 -21.858052 0.507997 -1.023753 15.235270 -0.429631 -0.302236 -0.068166 0.000000 0.503791 15.823043 0.570409 -0.715348 0.709580 -1.231940 -0.055562 
0.000000 0.000000 0.000000 -0.000000 0.000000 -0.000000 -0.000000 0.000000 -0.000000 0.000000 0.000000 0.000000 0.163516 0.000000 0.306886 -0.000000 0.000000 -0.000000 -0.000000 0.000001 -0.000000 -0.164687 0.000000 0.306409 -10.300721 -0.991983 5.766354 -80.953799 3.413453 16.700902 0.068166 0.000000 0.503791 -22.663900 0.560821 -1.058049 13.468771 -0.481814 -0.286891 -0.068166 0.000000 0.503791 17.111598 0.576192 -0.777412 0.348136 -1.273846 -0.070034 
